<?xml version="1.0" encoding="UTF-8" standalone="no"?>
<!DOCTYPE svg PUBLIC "-//W3C//DTD SVG 1.1//EN"
 "http://www.w3.org/Graphics/SVG/1.1/DTD/svg11.dtd">
<!-- Generated by graphviz version 2.28.0 (20120716.1244)
 -->
<!-- Title: AST Pages: 1 -->
<svg width="2435pt" height="342pt"
 viewBox="0.00 0.00 2435.00 342.00" xmlns="http://www.w3.org/2000/svg" xmlns:xlink="http://www.w3.org/1999/xlink">
<g id="graph1" class="graph" transform="scale(1 1) rotate(0) translate(4 338)">
<title>AST</title>
<polygon fill="white" stroke="white" points="-4,5 -4,-338 2432,-338 2432,5 -4,5"/>
<!-- AST -->
<g id="node1" class="node"><title>AST</title>
<polygon fill="none" stroke="black" points="1671,-297 1671,-333 1725,-333 1725,-297 1671,-297"/>
<text text-anchor="middle" x="1698" y="-311.3" font-family="Times,serif" font-size="14.00">AST</text>
</g>
<!-- ExprAST -->
<g id="node3" class="node"><title>ExprAST</title>
<polygon fill="none" stroke="black" points="507,-223 507,-259 575,-259 575,-223 507,-223"/>
<text text-anchor="middle" x="541" y="-237.3" font-family="Times,serif" font-size="14.00">ExprAST</text>
</g>
<!-- AST&#45;&gt;ExprAST -->
<g id="edge2" class="edge"><title>AST&#45;&gt;ExprAST</title>
<path fill="none" stroke="black" d="M1670.82,-312.309C1518.99,-302.86 775.742,-256.608 585.447,-244.766"/>
<polygon fill="black" stroke="black" points="585.453,-241.26 575.255,-244.132 585.019,-248.246 585.453,-241.26"/>
</g>
<!-- StatementAST -->
<g id="node5" class="node"><title>StatementAST</title>
<polygon fill="none" stroke="black" points="1439.5,-223 1439.5,-259 1536.5,-259 1536.5,-223 1439.5,-223"/>
<text text-anchor="middle" x="1488" y="-237.3" font-family="Times,serif" font-size="14.00">StatementAST</text>
</g>
<!-- AST&#45;&gt;StatementAST -->
<g id="edge4" class="edge"><title>AST&#45;&gt;StatementAST</title>
<path fill="none" stroke="black" d="M1670.98,-304.735C1639.59,-293.975 1586.92,-275.917 1546.13,-261.93"/>
<polygon fill="black" stroke="black" points="1547.16,-258.583 1536.56,-258.65 1544.89,-265.205 1547.16,-258.583"/>
</g>
<!-- ReferenceAST -->
<g id="node7" class="node"><title>ReferenceAST</title>
<polygon fill="none" stroke="black" points="1649.5,-223 1649.5,-259 1746.5,-259 1746.5,-223 1649.5,-223"/>
<text text-anchor="middle" x="1698" y="-237.3" font-family="Times,serif" font-size="14.00">ReferenceAST</text>
</g>
<!-- AST&#45;&gt;ReferenceAST -->
<g id="edge6" class="edge"><title>AST&#45;&gt;ReferenceAST</title>
<path fill="none" stroke="black" d="M1698,-296.937C1698,-288.807 1698,-278.876 1698,-269.705"/>
<polygon fill="black" stroke="black" points="1701.5,-269.441 1698,-259.441 1694.5,-269.441 1701.5,-269.441"/>
</g>
<!-- ExprTypeAST -->
<g id="node9" class="node"><title>ExprTypeAST</title>
<polygon fill="none" stroke="black" points="1915,-223 1915,-259 2011,-259 2011,-223 1915,-223"/>
<text text-anchor="middle" x="1963" y="-237.3" font-family="Times,serif" font-size="14.00">ExprTypeAST</text>
</g>
<!-- AST&#45;&gt;ExprTypeAST -->
<g id="edge8" class="edge"><title>AST&#45;&gt;ExprTypeAST</title>
<path fill="none" stroke="black" d="M1725.36,-306.566C1767.53,-295.11 1849.34,-272.882 1905.06,-257.741"/>
<polygon fill="black" stroke="black" points="1906.07,-261.094 1914.8,-255.095 1904.24,-254.339 1906.07,-261.094"/>
</g>
<!-- ExprListAST -->
<g id="node57" class="node"><title>ExprListAST</title>
<polygon fill="none" stroke="black" points="2029.5,-223 2029.5,-259 2118.5,-259 2118.5,-223 2029.5,-223"/>
<text text-anchor="middle" x="2074" y="-237.3" font-family="Times,serif" font-size="14.00">ExprListAST</text>
</g>
<!-- AST&#45;&gt;ExprListAST -->
<g id="edge52" class="edge"><title>AST&#45;&gt;ExprListAST</title>
<path fill="none" stroke="black" d="M1725.01,-310.914C1779.14,-304.422 1904.8,-287.812 2019.38,-259.938"/>
<polygon fill="black" stroke="black" points="2020.5,-263.267 2029.37,-257.472 2018.82,-256.471 2020.5,-263.267"/>
</g>
<!-- EmptyExprAST -->
<g id="node38" class="node"><title>EmptyExprAST</title>
<polygon fill="none" stroke="black" points="-0.5,-149 -0.5,-185 104.5,-185 104.5,-149 -0.5,-149"/>
<text text-anchor="middle" x="52" y="-163.3" font-family="Times,serif" font-size="14.00">EmptyExprAST</text>
</g>
<!-- ExprAST&#45;&gt;EmptyExprAST -->
<g id="edge64" class="edge"><title>ExprAST&#45;&gt;EmptyExprAST</title>
<path fill="none" stroke="black" d="M506.846,-237.574C435.478,-232.103 265.303,-216.958 114.661,-186.187"/>
<polygon fill="black" stroke="black" points="115.271,-182.739 104.768,-184.138 113.851,-189.594 115.271,-182.739"/>
</g>
<!-- TempExprAST -->
<g id="node39" class="node"><title>TempExprAST</title>
<polygon fill="none" stroke="black" points="122.5,-149 122.5,-185 223.5,-185 223.5,-149 122.5,-149"/>
<text text-anchor="middle" x="173" y="-163.3" font-family="Times,serif" font-size="14.00">TempExprAST</text>
</g>
<!-- ExprAST&#45;&gt;TempExprAST -->
<g id="edge66" class="edge"><title>ExprAST&#45;&gt;TempExprAST</title>
<path fill="none" stroke="black" d="M506.885,-235.44C451.367,-227.718 337.924,-210.679 233.492,-186.225"/>
<polygon fill="black" stroke="black" points="234.278,-182.815 223.74,-183.914 232.663,-189.626 234.278,-182.815"/>
</g>
<!-- ConstNumberExprAST -->
<g id="node41" class="node"><title>ConstNumberExprAST</title>
<polygon fill="none" stroke="black" points="241.5,-149 241.5,-185 386.5,-185 386.5,-149 241.5,-149"/>
<text text-anchor="middle" x="314" y="-163.3" font-family="Times,serif" font-size="14.00">ConstNumberExprAST</text>
</g>
<!-- ExprAST&#45;&gt;ConstNumberExprAST -->
<g id="edge71" class="edge"><title>ExprAST&#45;&gt;ConstNumberExprAST</title>
<path fill="none" stroke="black" d="M506.524,-229.065C472.349,-218.225 419.2,-201.367 377.396,-188.108"/>
<polygon fill="black" stroke="black" points="378.438,-184.767 367.848,-185.079 376.321,-191.439 378.438,-184.767"/>
</g>
<!-- ConstStringExprAST -->
<g id="node43" class="node"><title>ConstStringExprAST</title>
<polygon fill="none" stroke="black" points="404.5,-149 404.5,-185 537.5,-185 537.5,-149 404.5,-149"/>
<text text-anchor="middle" x="471" y="-163.3" font-family="Times,serif" font-size="14.00">ConstStringExprAST</text>
</g>
<!-- ExprAST&#45;&gt;ConstStringExprAST -->
<g id="edge38" class="edge"><title>ExprAST&#45;&gt;ConstStringExprAST</title>
<path fill="none" stroke="black" d="M524.411,-222.937C515.648,-213.924 504.732,-202.696 495.057,-192.744"/>
<polygon fill="black" stroke="black" points="497.437,-190.171 487.956,-185.441 492.418,-195.05 497.437,-190.171"/>
</g>
<!-- NamedExprAST -->
<g id="node45" class="node"><title>NamedExprAST</title>
<polygon fill="none" stroke="black" points="556,-149 556,-185 664,-185 664,-149 556,-149"/>
<text text-anchor="middle" x="610" y="-163.3" font-family="Times,serif" font-size="14.00">NamedExprAST</text>
</g>
<!-- ExprAST&#45;&gt;NamedExprAST -->
<g id="edge40" class="edge"><title>ExprAST&#45;&gt;NamedExprAST</title>
<path fill="none" stroke="black" d="M557.352,-222.937C565.99,-213.924 576.75,-202.696 586.287,-192.744"/>
<polygon fill="black" stroke="black" points="588.894,-195.082 593.286,-185.441 583.84,-190.239 588.894,-195.082"/>
</g>
<!-- CalcExprAST -->
<g id="node48" class="node"><title>CalcExprAST</title>
<polygon fill="none" stroke="black" points="682.5,-149 682.5,-185 775.5,-185 775.5,-149 682.5,-149"/>
<text text-anchor="middle" x="729" y="-163.3" font-family="Times,serif" font-size="14.00">CalcExprAST</text>
</g>
<!-- ExprAST&#45;&gt;CalcExprAST -->
<g id="edge43" class="edge"><title>ExprAST&#45;&gt;CalcExprAST</title>
<path fill="none" stroke="black" d="M575.045,-226.961C602.854,-216.311 642.679,-201.059 674.856,-188.736"/>
<polygon fill="black" stroke="black" points="676.488,-191.859 684.575,-185.014 673.985,-185.322 676.488,-191.859"/>
</g>
<!-- AssignmentExprAST -->
<g id="node55" class="node"><title>AssignmentExprAST</title>
<polygon fill="none" stroke="black" points="794,-149 794,-185 928,-185 928,-149 794,-149"/>
<text text-anchor="middle" x="861" y="-163.3" font-family="Times,serif" font-size="14.00">AssignmentExprAST</text>
</g>
<!-- ExprAST&#45;&gt;AssignmentExprAST -->
<g id="edge50" class="edge"><title>ExprAST&#45;&gt;AssignmentExprAST</title>
<path fill="none" stroke="black" d="M575.233,-232.517C622.301,-222.199 709.631,-202.955 784,-186 784.1,-185.977 784.201,-185.954 784.301,-185.931"/>
<polygon fill="black" stroke="black" points="784.853,-189.396 793.818,-183.751 783.289,-182.573 784.853,-189.396"/>
</g>
<!-- AssigmentAST -->
<g id="node11" class="node"><title>AssigmentAST</title>
<polygon fill="none" stroke="black" points="946.5,-149 946.5,-185 1047.5,-185 1047.5,-149 946.5,-149"/>
<text text-anchor="middle" x="997" y="-163.3" font-family="Times,serif" font-size="14.00">AssigmentAST</text>
</g>
<!-- StatementAST&#45;&gt;AssigmentAST -->
<g id="edge10" class="edge"><title>StatementAST&#45;&gt;AssigmentAST</title>
<path fill="none" stroke="black" d="M1439.28,-236.652C1360.6,-230.648 1200.7,-215.978 1057.54,-186.154"/>
<polygon fill="black" stroke="black" points="1058.21,-182.717 1047.7,-184.074 1056.76,-189.566 1058.21,-182.717"/>
</g>
<!-- CallStmtAST -->
<g id="node13" class="node"><title>CallStmtAST</title>
<polygon fill="none" stroke="black" points="1065.5,-149 1065.5,-185 1156.5,-185 1156.5,-149 1065.5,-149"/>
<text text-anchor="middle" x="1111" y="-163.3" font-family="Times,serif" font-size="14.00">CallStmtAST</text>
</g>
<!-- StatementAST&#45;&gt;CallStmtAST -->
<g id="edge12" class="edge"><title>StatementAST&#45;&gt;CallStmtAST</title>
<path fill="none" stroke="black" d="M1439.36,-234.276C1377.71,-226.49 1268.12,-210.886 1166.34,-186.15"/>
<polygon fill="black" stroke="black" points="1167.07,-182.724 1156.52,-183.728 1165.39,-189.521 1167.07,-182.724"/>
</g>
<!-- CodeBlockAST -->
<g id="node15" class="node"><title>CodeBlockAST</title>
<polygon fill="none" stroke="black" points="1174.5,-149 1174.5,-185 1277.5,-185 1277.5,-149 1174.5,-149"/>
<text text-anchor="middle" x="1226" y="-163.3" font-family="Times,serif" font-size="14.00">CodeBlockAST</text>
</g>
<!-- StatementAST&#45;&gt;CodeBlockAST -->
<g id="edge14" class="edge"><title>StatementAST&#45;&gt;CodeBlockAST</title>
<path fill="none" stroke="black" d="M1439.32,-227.426C1400.57,-217.32 1344.73,-202.533 1287.61,-186.421"/>
<polygon fill="black" stroke="black" points="1288.26,-182.968 1277.68,-183.613 1286.35,-189.704 1288.26,-182.968"/>
</g>
<!-- DimAST -->
<g id="node18" class="node"><title>DimAST</title>
<polygon fill="none" stroke="black" points="1295.5,-149 1295.5,-185 1362.5,-185 1362.5,-149 1295.5,-149"/>
<text text-anchor="middle" x="1329" y="-163.3" font-family="Times,serif" font-size="14.00">DimAST</text>
</g>
<!-- StatementAST&#45;&gt;DimAST -->
<g id="edge17" class="edge"><title>StatementAST&#45;&gt;DimAST</title>
<path fill="none" stroke="black" d="M1450.32,-222.937C1426.81,-212.291 1396.48,-198.555 1372.02,-187.482"/>
<polygon fill="black" stroke="black" points="1373.18,-184.164 1362.63,-183.227 1370.29,-190.54 1373.18,-184.164"/>
</g>
<!-- EmptyStmtAST -->
<g id="node22" class="node"><title>EmptyStmtAST</title>
<polygon fill="none" stroke="black" points="1380.5,-149 1380.5,-185 1485.5,-185 1485.5,-149 1380.5,-149"/>
<text text-anchor="middle" x="1433" y="-163.3" font-family="Times,serif" font-size="14.00">EmptyStmtAST</text>
</g>
<!-- StatementAST&#45;&gt;EmptyStmtAST -->
<g id="edge21" class="edge"><title>StatementAST&#45;&gt;EmptyStmtAST</title>
<path fill="none" stroke="black" d="M1474.97,-222.937C1468.28,-214.189 1460.01,-203.354 1452.58,-193.626"/>
<polygon fill="black" stroke="black" points="1455.17,-191.263 1446.32,-185.441 1449.61,-195.512 1455.17,-191.263"/>
</g>
<!-- IFStmtAST -->
<g id="node24" class="node"><title>IFStmtAST</title>
<polygon fill="none" stroke="black" points="1504,-149 1504,-185 1584,-185 1584,-149 1504,-149"/>
<text text-anchor="middle" x="1544" y="-163.3" font-family="Times,serif" font-size="14.00">IFStmtAST</text>
</g>
<!-- StatementAST&#45;&gt;IFStmtAST -->
<g id="edge23" class="edge"><title>StatementAST&#45;&gt;IFStmtAST</title>
<path fill="none" stroke="black" d="M1501.27,-222.937C1508.08,-214.189 1516.5,-203.354 1524.07,-193.626"/>
<polygon fill="black" stroke="black" points="1527.06,-195.483 1530.44,-185.441 1521.53,-191.185 1527.06,-195.483"/>
</g>
<!-- LoopAST -->
<g id="node26" class="node"><title>LoopAST</title>
<polygon fill="none" stroke="black" points="1602.5,-149 1602.5,-185 1673.5,-185 1673.5,-149 1602.5,-149"/>
<text text-anchor="middle" x="1638" y="-163.3" font-family="Times,serif" font-size="14.00">LoopAST</text>
</g>
<!-- StatementAST&#45;&gt;LoopAST -->
<g id="edge25" class="edge"><title>StatementAST&#45;&gt;LoopAST</title>
<path fill="none" stroke="black" d="M1523.55,-222.937C1544.39,-212.931 1570.93,-200.196 1593.19,-189.507"/>
<polygon fill="black" stroke="black" points="1594.95,-192.548 1602.45,-185.065 1591.92,-186.237 1594.95,-192.548"/>
</g>
<!-- PrintStmtAST -->
<g id="node29" class="node"><title>PrintStmtAST</title>
<polygon fill="none" stroke="black" points="1691.5,-149 1691.5,-185 1786.5,-185 1786.5,-149 1691.5,-149"/>
<text text-anchor="middle" x="1739" y="-163.3" font-family="Times,serif" font-size="14.00">PrintStmtAST</text>
</g>
<!-- StatementAST&#45;&gt;PrintStmtAST -->
<g id="edge28" class="edge"><title>StatementAST&#45;&gt;PrintStmtAST</title>
<path fill="none" stroke="black" d="M1536.77,-226.925C1573.93,-216.847 1626.59,-202.326 1681.84,-186.001"/>
<polygon fill="black" stroke="black" points="1682.86,-189.349 1691.45,-183.15 1680.87,-182.638 1682.86,-189.349"/>
</g>
<!-- ReturnAST -->
<g id="node31" class="node"><title>ReturnAST</title>
<polygon fill="none" stroke="black" points="1804.5,-149 1804.5,-185 1883.5,-185 1883.5,-149 1804.5,-149"/>
<text text-anchor="middle" x="1844" y="-163.3" font-family="Times,serif" font-size="14.00">ReturnAST</text>
</g>
<!-- StatementAST&#45;&gt;ReturnAST -->
<g id="edge30" class="edge"><title>StatementAST&#45;&gt;ReturnAST</title>
<path fill="none" stroke="black" d="M1536.7,-234.157C1595.72,-226.479 1698.16,-211.228 1794.45,-185.885"/>
<polygon fill="black" stroke="black" points="1795.59,-189.203 1804.35,-183.238 1793.78,-182.441 1795.59,-189.203"/>
</g>
<!-- VoidExprTypeAST -->
<g id="node59" class="node"><title>VoidExprTypeAST</title>
<polygon fill="none" stroke="black" points="1901.5,-149 1901.5,-185 2024.5,-185 2024.5,-149 1901.5,-149"/>
<text text-anchor="middle" x="1963" y="-163.3" font-family="Times,serif" font-size="14.00">VoidExprTypeAST</text>
</g>
<!-- ExprTypeAST&#45;&gt;VoidExprTypeAST -->
<g id="edge54" class="edge"><title>ExprTypeAST&#45;&gt;VoidExprTypeAST</title>
<path fill="none" stroke="black" d="M1963,-222.937C1963,-214.807 1963,-204.876 1963,-195.705"/>
<polygon fill="black" stroke="black" points="1966.5,-195.441 1963,-185.441 1959.5,-195.441 1966.5,-195.441"/>
</g>
<!-- NumberExprTypeAST -->
<g id="node61" class="node"><title>NumberExprTypeAST</title>
<polygon fill="none" stroke="black" points="2042.5,-149 2042.5,-185 2183.5,-185 2183.5,-149 2042.5,-149"/>
<text text-anchor="middle" x="2113" y="-163.3" font-family="Times,serif" font-size="14.00">NumberExprTypeAST</text>
</g>
<!-- ExprTypeAST&#45;&gt;NumberExprTypeAST -->
<g id="edge56" class="edge"><title>ExprTypeAST&#45;&gt;NumberExprTypeAST</title>
<path fill="none" stroke="black" d="M1998.55,-222.937C2019.39,-212.931 2045.93,-200.196 2068.19,-189.507"/>
<polygon fill="black" stroke="black" points="2069.95,-192.548 2077.45,-185.065 2066.92,-186.237 2069.95,-192.548"/>
</g>
<!-- StringExprTypeAST -->
<g id="node63" class="node"><title>StringExprTypeAST</title>
<polygon fill="none" stroke="black" points="2201.5,-149 2201.5,-185 2330.5,-185 2330.5,-149 2201.5,-149"/>
<text text-anchor="middle" x="2266" y="-163.3" font-family="Times,serif" font-size="14.00">StringExprTypeAST</text>
</g>
<!-- ExprTypeAST&#45;&gt;StringExprTypeAST -->
<g id="edge58" class="edge"><title>ExprTypeAST&#45;&gt;StringExprTypeAST</title>
<path fill="none" stroke="black" d="M2011.1,-224.439C2014.11,-223.583 2017.09,-222.762 2020,-222 2092.45,-203.028 2114.07,-203.184 2191.24,-186.117"/>
<polygon fill="black" stroke="black" points="2192.46,-189.43 2201.45,-183.83 2190.93,-182.6 2192.46,-189.43"/>
</g>
<!-- ArgumentDimsAST -->
<g id="node16" class="node"><title>ArgumentDimsAST</title>
<polygon fill="none" stroke="black" points="1126,-75 1126,-111 1254,-111 1254,-75 1126,-75"/>
<text text-anchor="middle" x="1190" y="-89.3" font-family="Times,serif" font-size="14.00">ArgumentDimsAST</text>
</g>
<!-- CodeBlockAST&#45;&gt;ArgumentDimsAST -->
<g id="edge15" class="edge"><title>CodeBlockAST&#45;&gt;ArgumentDimsAST</title>
<path fill="none" stroke="black" d="M1217.47,-148.937C1213.23,-140.454 1208,-130.009 1203.26,-120.513"/>
<polygon fill="black" stroke="black" points="1206.32,-118.82 1198.72,-111.441 1200.06,-121.95 1206.32,-118.82"/>
</g>
<!-- VariableDimAST -->
<g id="node19" class="node"><title>VariableDimAST</title>
<polygon fill="none" stroke="black" points="1272.5,-75 1272.5,-111 1385.5,-111 1385.5,-75 1272.5,-75"/>
<text text-anchor="middle" x="1329" y="-89.3" font-family="Times,serif" font-size="14.00">VariableDimAST</text>
</g>
<!-- DimAST&#45;&gt;VariableDimAST -->
<g id="edge18" class="edge"><title>DimAST&#45;&gt;VariableDimAST</title>
<path fill="none" stroke="black" d="M1329,-148.937C1329,-140.807 1329,-130.876 1329,-121.705"/>
<polygon fill="black" stroke="black" points="1332.5,-121.441 1329,-111.441 1325.5,-121.441 1332.5,-121.441"/>
</g>
<!-- FunctionDimAST -->
<g id="node35" class="node"><title>FunctionDimAST</title>
<polygon fill="none" stroke="black" points="1416.5,-75 1416.5,-111 1531.5,-111 1531.5,-75 1416.5,-75"/>
<text text-anchor="middle" x="1474" y="-89.3" font-family="Times,serif" font-size="14.00">FunctionDimAST</text>
</g>
<!-- DimAST&#45;&gt;FunctionDimAST -->
<g id="edge34" class="edge"><title>DimAST&#45;&gt;FunctionDimAST</title>
<path fill="none" stroke="black" d="M1362.63,-149.301C1382.83,-139.268 1408.76,-126.397 1430.51,-115.596"/>
<polygon fill="black" stroke="black" points="1432.15,-118.691 1439.55,-111.109 1429.03,-112.421 1432.15,-118.691"/>
</g>
<!-- ArgumentDimAST -->
<g id="node20" class="node"><title>ArgumentDimAST</title>
<polygon fill="none" stroke="black" points="1261,-1 1261,-37 1383,-37 1383,-1 1261,-1"/>
<text text-anchor="middle" x="1322" y="-15.3" font-family="Times,serif" font-size="14.00">ArgumentDimAST</text>
</g>
<!-- VariableDimAST&#45;&gt;ArgumentDimAST -->
<g id="edge19" class="edge"><title>VariableDimAST&#45;&gt;ArgumentDimAST</title>
<path fill="none" stroke="black" d="M1327.34,-74.937C1326.54,-66.7188 1325.56,-56.66 1324.66,-47.4059"/>
<polygon fill="black" stroke="black" points="1328.15,-47.055 1323.7,-37.4407 1321.18,-47.7325 1328.15,-47.055"/>
</g>
<!-- WhileLoopAST -->
<g id="node27" class="node"><title>WhileLoopAST</title>
<polygon fill="none" stroke="black" points="1568,-75 1568,-111 1672,-111 1672,-75 1568,-75"/>
<text text-anchor="middle" x="1620" y="-89.3" font-family="Times,serif" font-size="14.00">WhileLoopAST</text>
</g>
<!-- LoopAST&#45;&gt;WhileLoopAST -->
<g id="edge26" class="edge"><title>LoopAST&#45;&gt;WhileLoopAST</title>
<path fill="none" stroke="black" d="M1633.73,-148.937C1631.68,-140.719 1629.17,-130.66 1626.85,-121.406"/>
<polygon fill="black" stroke="black" points="1630.18,-120.293 1624.36,-111.441 1623.39,-121.991 1630.18,-120.293"/>
</g>
<!-- ForLoopAST -->
<g id="node33" class="node"><title>ForLoopAST</title>
<polygon fill="none" stroke="black" points="1690.5,-75 1690.5,-111 1779.5,-111 1779.5,-75 1690.5,-75"/>
<text text-anchor="middle" x="1735" y="-89.3" font-family="Times,serif" font-size="14.00">ForLoopAST</text>
</g>
<!-- LoopAST&#45;&gt;ForLoopAST -->
<g id="edge32" class="edge"><title>LoopAST&#45;&gt;ForLoopAST</title>
<path fill="none" stroke="black" d="M1660.99,-148.937C1673.7,-139.501 1689.68,-127.639 1703.54,-117.354"/>
<polygon fill="black" stroke="black" points="1705.9,-119.961 1711.84,-111.19 1701.73,-114.34 1705.9,-119.961"/>
</g>
<!-- DefaultMainFunctionAST -->
<g id="node36" class="node"><title>DefaultMainFunctionAST</title>
<polygon fill="none" stroke="black" points="1401,-1 1401,-37 1561,-37 1561,-1 1401,-1"/>
<text text-anchor="middle" x="1481" y="-15.3" font-family="Times,serif" font-size="14.00">DefaultMainFunctionAST</text>
</g>
<!-- FunctionDimAST&#45;&gt;DefaultMainFunctionAST -->
<g id="edge35" class="edge"><title>FunctionDimAST&#45;&gt;DefaultMainFunctionAST</title>
<path fill="none" stroke="black" d="M1475.66,-74.937C1476.46,-66.7188 1477.44,-56.66 1478.34,-47.4059"/>
<polygon fill="black" stroke="black" points="1481.82,-47.7325 1479.3,-37.4407 1474.85,-47.055 1481.82,-47.7325"/>
</g>
<!-- TempNumberExprAST -->
<g id="node40" class="node"><title>TempNumberExprAST</title>
<polygon fill="none" stroke="black" points="21,-75 21,-111 167,-111 167,-75 21,-75"/>
<text text-anchor="middle" x="94" y="-89.3" font-family="Times,serif" font-size="14.00">TempNumberExprAST</text>
</g>
<!-- TempExprAST&#45;&gt;TempNumberExprAST -->
<g id="edge67" class="edge"><title>TempExprAST&#45;&gt;TempNumberExprAST</title>
<path fill="none" stroke="black" d="M154.278,-148.937C144.12,-139.679 131.4,-128.086 120.265,-117.938"/>
<polygon fill="black" stroke="black" points="122.61,-115.339 112.861,-111.19 117.895,-120.513 122.61,-115.339"/>
</g>
<!-- TempStringExprAST -->
<g id="node72" class="node"><title>TempStringExprAST</title>
<polygon fill="none" stroke="black" points="185,-75 185,-111 319,-111 319,-75 185,-75"/>
<text text-anchor="middle" x="252" y="-89.3" font-family="Times,serif" font-size="14.00">TempStringExprAST</text>
</g>
<!-- TempExprAST&#45;&gt;TempStringExprAST -->
<g id="edge69" class="edge"><title>TempExprAST&#45;&gt;TempStringExprAST</title>
<path fill="none" stroke="black" d="M191.722,-148.937C201.88,-139.679 214.6,-128.086 225.735,-117.938"/>
<polygon fill="black" stroke="black" points="228.105,-120.513 233.139,-111.19 223.39,-115.339 228.105,-120.513"/>
</g>
<!-- VariableExprAST -->
<g id="node46" class="node"><title>VariableExprAST</title>
<polygon fill="none" stroke="black" points="480.5,-75 480.5,-111 595.5,-111 595.5,-75 480.5,-75"/>
<text text-anchor="middle" x="538" y="-89.3" font-family="Times,serif" font-size="14.00">VariableExprAST</text>
</g>
<!-- NamedExprAST&#45;&gt;VariableExprAST -->
<g id="edge41" class="edge"><title>NamedExprAST&#45;&gt;VariableExprAST</title>
<path fill="none" stroke="black" d="M592.937,-148.937C583.924,-139.924 572.696,-128.696 562.744,-118.744"/>
<polygon fill="black" stroke="black" points="564.987,-116.037 555.441,-111.441 560.037,-120.987 564.987,-116.037"/>
</g>
<!-- CallOrArrayExprAST -->
<g id="node50" class="node"><title>CallOrArrayExprAST</title>
<polygon fill="none" stroke="black" points="613.5,-75 613.5,-111 750.5,-111 750.5,-75 613.5,-75"/>
<text text-anchor="middle" x="682" y="-89.3" font-family="Times,serif" font-size="14.00">CallOrArrayExprAST</text>
</g>
<!-- NamedExprAST&#45;&gt;CallOrArrayExprAST -->
<g id="edge45" class="edge"><title>NamedExprAST&#45;&gt;CallOrArrayExprAST</title>
<path fill="none" stroke="black" d="M627.063,-148.937C636.076,-139.924 647.304,-128.696 657.256,-118.744"/>
<polygon fill="black" stroke="black" points="659.963,-120.987 664.559,-111.441 655.013,-116.037 659.963,-120.987"/>
</g>
<!-- CallExprAST -->
<g id="node51" class="node"><title>CallExprAST</title>
<polygon fill="none" stroke="black" points="572.5,-1 572.5,-37 663.5,-37 663.5,-1 572.5,-1"/>
<text text-anchor="middle" x="618" y="-15.3" font-family="Times,serif" font-size="14.00">CallExprAST</text>
</g>
<!-- CallOrArrayExprAST&#45;&gt;CallExprAST -->
<g id="edge46" class="edge"><title>CallOrArrayExprAST&#45;&gt;CallExprAST</title>
<path fill="none" stroke="black" d="M666.833,-74.937C658.899,-66.0119 649.036,-54.9159 640.255,-45.0373"/>
<polygon fill="black" stroke="black" points="642.762,-42.5895 633.503,-37.4407 637.531,-47.2401 642.762,-42.5895"/>
</g>
<!-- ArrayExprTypeAST -->
<g id="node53" class="node"><title>ArrayExprTypeAST</title>
<polygon fill="none" stroke="black" points="682,-1 682,-37 810,-37 810,-1 682,-1"/>
<text text-anchor="middle" x="746" y="-15.3" font-family="Times,serif" font-size="14.00">ArrayExprTypeAST</text>
</g>
<!-- CallOrArrayExprAST&#45;&gt;ArrayExprTypeAST -->
<g id="edge48" class="edge"><title>CallOrArrayExprAST&#45;&gt;ArrayExprTypeAST</title>
<path fill="none" stroke="black" d="M697.167,-74.937C705.101,-66.0119 714.964,-54.9159 723.745,-45.0373"/>
<polygon fill="black" stroke="black" points="726.469,-47.2401 730.497,-37.4407 721.238,-42.5895 726.469,-47.2401"/>
</g>
<!-- ExprOperation -->
<g id="node64" class="node"><title>ExprOperation</title>
<polygon fill="none" stroke="black" points="2236.5,-297 2236.5,-333 2333.5,-333 2333.5,-297 2236.5,-297"/>
<text text-anchor="middle" x="2285" y="-311.3" font-family="Times,serif" font-size="14.00">ExprOperation</text>
</g>
<!-- NumberExprOperation -->
<g id="node66" class="node"><title>NumberExprOperation</title>
<polygon fill="none" stroke="black" points="2137,-223 2137,-259 2279,-259 2279,-223 2137,-223"/>
<text text-anchor="middle" x="2208" y="-237.3" font-family="Times,serif" font-size="14.00">NumberExprOperation</text>
</g>
<!-- ExprOperation&#45;&gt;NumberExprOperation -->
<g id="edge60" class="edge"><title>ExprOperation&#45;&gt;NumberExprOperation</title>
<path fill="none" stroke="black" d="M2266.75,-296.937C2256.95,-287.768 2244.69,-276.308 2233.91,-266.231"/>
<polygon fill="black" stroke="black" points="2236.08,-263.464 2226.38,-259.19 2231.3,-268.576 2236.08,-263.464"/>
</g>
<!-- StringExprOperation -->
<g id="node68" class="node"><title>StringExprOperation</title>
<polygon fill="none" stroke="black" points="2297,-223 2297,-259 2427,-259 2427,-223 2297,-223"/>
<text text-anchor="middle" x="2362" y="-237.3" font-family="Times,serif" font-size="14.00">StringExprOperation</text>
</g>
<!-- ExprOperation&#45;&gt;StringExprOperation -->
<g id="edge62" class="edge"><title>ExprOperation&#45;&gt;StringExprOperation</title>
<path fill="none" stroke="black" d="M2303.25,-296.937C2313.05,-287.768 2325.31,-276.308 2336.09,-266.231"/>
<polygon fill="black" stroke="black" points="2338.7,-268.576 2343.62,-259.19 2333.92,-263.464 2338.7,-268.576"/>
</g>
</g>
</svg>
